<svg width="67" height="42" viewBox="0 0 67 42" fill="none" xmlns="http://www.w3.org/2000/svg">
<path d="M47.8613 39.8444C55.2745 40.4621 56.51 37.3733 47.8613 35.52V39.8444Z" fill="white" stroke="white"/>
<path d="M47.8613 29.9602C65.7765 26.8714 69.4831 16.3694 47.8613 24.4003V29.9602Z" fill="white" stroke="white"/>
<path d="M47.8621 34.9023C61.453 36.1377 65.1596 26.2535 47.8621 30.578L47.8621 34.9023Z" fill="white" stroke="white"/>
<path d="M47.8613 18.8404C71.7887 2.92671 65.7765 -9.02747 47.8613 13.212V18.8404Z" fill="white" stroke="white"/>
<path d="M47.8618 24.4003C74.157 12.8102 69.3142 0.607875 47.8618 19.4584L47.8618 24.4003Z" fill="white" stroke="white"/>
<path d="M19.0508 39.8444C11.6376 40.4621 10.4021 37.3733 19.0508 35.52V39.8444Z" fill="white" stroke="white"/>
<path d="M19.0508 29.9602C1.13559 26.8714 -2.571 16.3694 19.0508 24.4003V29.9602Z" fill="white" stroke="white"/>
<path d="M19.05 34.9023C5.45908 36.1377 1.75249 26.2535 19.05 30.578L19.05 34.9023Z" fill="white" stroke="white"/>
<path d="M19.0508 18.8404C-4.87663 2.92671 1.13559 -9.02747 19.0508 13.212V18.8404Z" fill="white" stroke="white"/>
<path d="M19.0503 24.4003C-7.24484 12.8102 -2.40214 0.607875 19.0504 19.4584L19.0503 24.4003Z" fill="white" stroke="white"/>
<path d="M22.1152 40.2848V11.4472C22.1152 11.3919 22.16 11.3472 22.2152 11.3472H44.6738C44.7288 11.3472 44.7735 11.3915 44.7738 11.4465L44.9718 40.8965C44.9722 40.953 44.9257 40.9986 44.8691 40.9971L22.2125 40.3848C22.1584 40.3833 22.1152 40.339 22.1152 40.2848Z" fill="white" stroke="white"/>
<path d="M25.2031 10.7295C25.8209 -2.24322 40.6473 -2.24314 41.8828 10.7295" stroke="white"/>
<ellipse cx="24.8954" cy="14.1276" rx="0.926648" ry="0.926648" fill="#CA3652"/>
<ellipse cx="42.1923" cy="14.1276" rx="0.926648" ry="0.926648" fill="#CA3652"/>
<path d="M27.6758 24.0529V18.1431H28.209V23.6097H29.5018V24.0529H27.6758Z" fill="#CA3652"/>
<path d="M29.8699 18.7341V18.1431H30.7182V18.7341H29.8699ZM30.0274 24.0529V19.6205H30.5607V24.0529H30.0274Z" fill="#CA3652"/>
<path d="M32.7767 24.1046C32.5909 24.1046 32.4468 24.0677 32.3445 23.9938C32.2421 23.92 32.1506 23.8079 32.0698 23.6577H31.9809V24.0529H31.4436V18.1431H31.9809V20.0158H32.0981C32.1789 19.8631 32.2704 19.751 32.3728 19.6796C32.4751 19.6058 32.6205 19.5688 32.8091 19.5688C33.0622 19.5688 33.2494 19.6365 33.3706 19.772C33.4918 19.9074 33.5578 20.1327 33.5685 20.4479C33.5739 20.6818 33.578 20.9182 33.5807 21.1571C33.5834 21.396 33.5847 21.6336 33.5847 21.87C33.5847 22.1064 33.5834 22.3391 33.5807 22.5681C33.578 22.7946 33.5739 23.0138 33.5685 23.2255C33.5578 23.5358 33.4864 23.7599 33.3544 23.8978C33.2252 24.0357 33.0326 24.1046 32.7767 24.1046ZM32.6192 23.7205C32.7646 23.7205 32.8683 23.6848 32.9303 23.6134C32.9949 23.5395 33.0286 23.4213 33.0312 23.2588C33.0393 23.0396 33.0447 22.8156 33.0474 22.5865C33.0528 22.3575 33.0555 22.1248 33.0555 21.8884C33.0555 21.652 33.0528 21.4107 33.0474 21.1645C33.0447 20.9182 33.0393 20.6683 33.0312 20.4147C33.0286 20.2497 32.9949 20.1315 32.9303 20.0601C32.8683 19.9887 32.7646 19.953 32.6192 19.953C32.4684 19.953 32.3378 19.9887 32.2273 20.0601C32.1169 20.1315 32.0348 20.246 31.9809 20.4036V23.2699C32.0348 23.425 32.1169 23.5395 32.2273 23.6134C32.3378 23.6848 32.4684 23.7205 32.6192 23.7205Z" fill="#CA3652"/>
<path d="M34.5778 25.5562C34.5078 25.5562 34.423 25.5513 34.3233 25.5415C34.2237 25.5341 34.1402 25.5255 34.0729 25.5156V25.1315C34.1348 25.1389 34.2129 25.145 34.3072 25.1499C34.4014 25.1573 34.489 25.161 34.5698 25.161C34.7664 25.161 34.8997 25.1266 34.9697 25.0576C35.0397 24.9887 35.0882 24.8655 35.1151 24.6882L35.204 24.0529H34.7394L34.1052 19.6205H34.6506L34.8808 21.7813L35.1192 23.6651H35.3333L35.5716 21.7813L35.8019 19.6205H36.3513L35.6484 24.6587C35.6161 24.8705 35.5622 25.0428 35.4868 25.1758C35.4141 25.3088 35.3037 25.4048 35.1555 25.4639C35.0101 25.5255 34.8175 25.5562 34.5778 25.5562Z" fill="#CA3652"/>
<path d="M37.5271 24.1009C37.2658 24.1009 37.0733 24.0308 36.9494 23.8904C36.8255 23.75 36.7514 23.5407 36.7272 23.2625C36.7245 23.2009 36.7218 23.1381 36.7191 23.0741C36.7164 23.0101 36.7164 22.9485 36.7191 22.8894C36.7326 22.7171 36.7649 22.5607 36.8161 22.4203C36.8672 22.28 36.9494 22.1519 37.0625 22.0362C37.1783 21.9205 37.3359 21.8096 37.5351 21.7038C37.651 21.6422 37.7708 21.5831 37.8947 21.5265C38.0186 21.4698 38.1425 21.4169 38.2663 21.3676V20.4258C38.2663 20.2632 38.2327 20.145 38.1653 20.0712C38.098 19.9973 37.9768 19.9603 37.8018 19.9603C37.6483 19.9603 37.5338 19.9924 37.4584 20.0564C37.383 20.1204 37.3412 20.2398 37.3332 20.4147C37.3305 20.4713 37.3278 20.5427 37.3251 20.6289C37.3251 20.7126 37.3251 20.8 37.3251 20.8912C37.3278 20.9798 37.3305 21.0598 37.3332 21.1312H36.812C36.8093 21.0327 36.8066 20.9207 36.8039 20.7951C36.8013 20.6695 36.8013 20.5575 36.8039 20.459C36.812 20.2497 36.8511 20.0798 36.9211 19.9493C36.9911 19.8188 37.0989 19.724 37.2443 19.6649C37.3897 19.6033 37.5809 19.5725 37.8179 19.5725C38.0657 19.5725 38.2596 19.6058 38.3997 19.6722C38.5424 19.7363 38.6434 19.8385 38.7026 19.9788C38.7646 20.1167 38.7956 20.2977 38.7956 20.5218V24.0529H38.2623V23.654H38.1734C38.1142 23.7944 38.0361 23.9039 37.9391 23.9827C37.8422 24.0615 37.7048 24.1009 37.5271 24.1009ZM37.7048 23.7205C37.8422 23.7205 37.9566 23.6848 38.0482 23.6134C38.1425 23.5395 38.2152 23.4324 38.2663 23.292V21.7739C38.1721 21.8084 38.0751 21.849 37.9755 21.8958C37.8785 21.9426 37.7695 22.0079 37.6483 22.0916C37.4947 22.195 37.3924 22.312 37.3412 22.4425C37.2901 22.5705 37.2604 22.7195 37.2524 22.8894C37.2497 22.9337 37.2483 22.9867 37.2483 23.0483C37.251 23.1098 37.2537 23.1714 37.2564 23.2329C37.2699 23.3881 37.3157 23.5087 37.3938 23.5949C37.4719 23.6786 37.5755 23.7205 37.7048 23.7205Z" fill="#CA3652"/>
<path d="M28.9121 32.9694V26.7917H29.8622L30.2375 29.3169L30.4877 32.479H30.6363L30.8787 29.3169L31.2619 26.7917H32.212V32.9694H31.688V31.1702L31.7819 27.2551H31.6059L31.1876 31.1933L30.9061 32.9424H30.2102L29.9365 31.1933L29.5181 27.2551H29.35L29.4321 31.1702V32.9694H28.9121Z" fill="#CA3652"/>
<path d="M32.8009 32.9694L33.4695 26.7917H34.4391L35.1038 32.9694H34.576L34.4117 31.1779H33.493L33.3327 32.9694H32.8009ZM33.5438 30.7146H34.3609L34.2397 29.3632L34.0638 27.2551H33.8448L33.6689 29.3671L33.5438 30.7146Z" fill="#CA3652"/>
<path d="M35.344 32.9694L36.0477 29.8188L35.3792 26.7917H35.8835L36.165 28.2474L36.3801 29.6103H36.5326L36.7437 28.2474L37.0213 26.7917H37.5256L36.8727 29.8342L37.5608 32.9694H37.0526L36.7554 31.4404L36.5326 30.0736H36.3801L36.1572 31.4404L35.8483 32.9694H35.344Z" fill="#CA3652"/>
</svg>
