<svg width="204" height="128" viewBox="0 0 204 128" fill="none" xmlns="http://www.w3.org/2000/svg">
<path d="M147.152 123.063C170.387 124.999 174.259 115.318 147.152 109.509V123.063Z" fill="#E28830" stroke="#E28830"/>
<path d="M147.152 92.0832C203.303 82.4021 214.92 49.4865 147.152 74.6573V92.0832Z" fill="#B8267B" stroke="#B8267B"/>
<path d="M147.152 107.573C189.749 111.445 201.366 80.466 147.152 94.0199L147.152 107.573Z" fill="#D22C50" stroke="#D22C50"/>
<path d="M147.152 57.2312C222.146 7.35404 203.303 -30.1132 147.152 39.5907V57.2312Z" fill="#4286C5" stroke="#4286C5"/>
<path d="M147.152 74.6573C229.567 38.331 214.389 0.0861924 147.152 59.168L147.152 74.6573Z" fill="#951D7E" stroke="#951D7E"/>
<path d="M56.8478 123.063C33.6131 124.999 29.7407 115.318 56.8478 109.509V123.063Z" fill="#E28830" stroke="#E28830"/>
<path d="M56.8478 92.0832C0.69738 82.4021 -10.9199 49.4865 56.8478 74.6573V92.0832Z" fill="#B8267B" stroke="#B8267B"/>
<path d="M56.848 107.573C14.2509 111.445 2.63359 80.466 56.848 94.0199L56.848 107.573Z" fill="#D22C50" stroke="#D22C50"/>
<path d="M56.8478 57.2312C-18.1463 7.35404 0.69738 -30.1132 56.8478 39.5907V57.2312Z" fill="#4286C5" stroke="#4286C5"/>
<path d="M56.8477 74.6573C-25.5674 38.331 -10.3893 0.0861924 56.8479 59.168L56.8477 74.6573Z" fill="#951D7E" stroke="#951D7E"/>
<path d="M66.4561 124.651V33.8462C66.4561 33.7909 66.5008 33.7462 66.5561 33.7462H137.372C137.427 33.7462 137.472 33.7905 137.472 33.8455L138.096 126.581C138.096 126.638 138.049 126.683 137.993 126.682L66.5534 124.751C66.4992 124.75 66.4561 124.705 66.4561 124.651Z" fill="#1E2182" stroke="#1E2182"/>
<path d="M76.1372 31.8099C78.0734 -8.84972 124.543 -8.84949 128.415 31.8099" stroke="#951D7E"/>
<circle cx="75.1692" cy="42.46" r="2.90433" fill="black"/>
<circle cx="129.383" cy="42.46" r="2.90433" fill="black"/>
<path d="M83.8823 73.5682V55.0453H85.5536V72.179H89.6053V73.5682H83.8823Z" fill="white"/>
<path d="M90.7591 56.8976V55.0453H93.418V56.8976H90.7591ZM91.2529 73.5682V59.676H92.9242V73.5682H91.2529Z" fill="white"/>
<path d="M99.8699 73.7303C99.2874 73.7303 98.8358 73.6145 98.5151 73.3829C98.1943 73.1514 97.9073 72.8002 97.6541 72.3295H97.3755V73.5682H95.6916V55.0453H97.3755V60.9147H97.7427C97.996 60.4362 98.283 60.0851 98.6037 59.8612C98.9245 59.6297 99.3803 59.5139 99.9712 59.5139C100.765 59.5139 101.351 59.7262 101.731 60.1507C102.111 60.5751 102.318 61.2813 102.352 62.2692C102.368 63.0024 102.381 63.7433 102.39 64.492C102.398 65.2406 102.402 65.9854 102.402 66.7263C102.402 67.4672 102.398 68.1965 102.39 68.9143C102.381 69.6243 102.368 70.3112 102.352 70.975C102.318 71.9474 102.094 72.6497 101.68 73.0819C101.275 73.5142 100.672 73.7303 99.8699 73.7303ZM99.3761 72.5263C99.8319 72.5263 100.157 72.4144 100.351 72.1905C100.554 71.959 100.659 71.5885 100.668 71.0792C100.693 70.3923 100.71 69.6899 100.718 68.9722C100.735 68.2544 100.744 67.5251 100.744 66.7842C100.744 66.0433 100.735 65.2869 100.718 64.5151C100.71 63.7433 100.693 62.96 100.668 62.165C100.659 61.6479 100.554 61.2775 100.351 61.0536C100.157 60.8298 99.8319 60.7179 99.3761 60.7179C98.9034 60.7179 98.494 60.8298 98.1479 61.0536C97.8018 61.2775 97.5444 61.6363 97.3755 62.1303V71.1139C97.5444 71.6001 97.8018 71.959 98.1479 72.1905C98.494 72.4144 98.9034 72.5263 99.3761 72.5263Z" fill="white"/>
<path d="M105.515 78.2799C105.295 78.2799 105.03 78.2645 104.717 78.2336C104.405 78.2105 104.143 78.1835 103.932 78.1526V76.9486C104.126 76.9718 104.371 76.9911 104.667 77.0065C104.962 77.0296 105.236 77.0412 105.49 77.0412C106.106 77.0412 106.524 76.9332 106.743 76.7171C106.963 76.501 107.115 76.1151 107.199 75.5594L107.477 73.5682H106.021L104.034 59.676H105.743L106.465 66.4484L107.212 72.3526H107.883L108.63 66.4484L109.351 59.676H111.073L108.87 75.4668C108.769 76.1305 108.6 76.6708 108.364 77.0875C108.136 77.5043 107.79 77.8053 107.326 77.9905C106.87 78.1835 106.266 78.2799 105.515 78.2799Z" fill="white"/>
<path d="M114.758 73.7187C113.94 73.7187 113.336 73.4987 112.948 73.0588C112.56 72.6189 112.327 71.9629 112.252 71.0907C112.243 70.8978 112.235 70.701 112.226 70.5003C112.218 70.2997 112.218 70.1067 112.226 69.9215C112.268 69.3812 112.37 68.8911 112.53 68.4512C112.69 68.0113 112.948 67.61 113.302 67.2472C113.665 66.8845 114.159 66.5372 114.784 66.2053C115.147 66.0124 115.522 65.8272 115.911 65.6496C116.299 65.4721 116.687 65.3062 117.076 65.1518V62.1998C117.076 61.6904 116.97 61.3199 116.759 61.0884C116.548 60.8568 116.168 60.7411 115.619 60.7411C115.138 60.7411 114.78 60.8414 114.543 61.0421C114.307 61.2427 114.176 61.6171 114.151 62.165C114.142 62.3425 114.134 62.5664 114.125 62.8365C114.125 63.0989 114.125 63.3729 114.125 63.6584C114.134 63.9363 114.142 64.1871 114.151 64.4109H112.517C112.509 64.1022 112.501 63.751 112.492 63.3574C112.484 62.9638 112.484 62.6127 112.492 62.3039C112.517 61.6479 112.64 61.1154 112.859 60.7063C113.079 60.2973 113.416 60.0002 113.872 59.8149C114.328 59.622 114.927 59.5255 115.67 59.5255C116.447 59.5255 117.054 59.6297 117.493 59.8381C117.941 60.0387 118.257 60.359 118.443 60.799C118.637 61.2312 118.734 61.7984 118.734 62.5008V73.5682H117.063V72.3179H116.784C116.599 72.7578 116.354 73.1012 116.05 73.3482C115.746 73.5952 115.316 73.7187 114.758 73.7187ZM115.316 72.5263C115.746 72.5263 116.105 72.4144 116.392 72.1905C116.687 71.959 116.915 71.6233 117.076 71.1834V66.4253C116.78 66.5333 116.476 66.6607 116.164 66.8073C115.86 66.954 115.518 67.1585 115.138 67.4209C114.657 67.745 114.336 68.1116 114.176 68.5207C114.016 68.922 113.923 69.3889 113.898 69.9215C113.889 70.0604 113.885 70.2263 113.885 70.4193C113.893 70.6122 113.902 70.8052 113.91 70.9981C113.952 71.4844 114.096 71.8625 114.341 72.1327C114.585 72.3951 114.91 72.5263 115.316 72.5263Z" fill="white"/>
<path d="M87.7546 101.515V82.1525H90.7324L91.9088 90.0668L92.6931 99.9778H93.1587L93.9185 90.0668L95.1194 82.1525H98.0971V101.515H96.4551V95.8755L96.7492 83.6047H96.1977L94.8865 95.9481L94.0042 101.43H91.823L90.9652 95.9481L89.654 83.6047H89.1271L89.3844 95.8755V101.515H87.7546Z" fill="white"/>
<path d="M99.9431 101.515L102.039 82.1525H105.078L107.161 101.515H105.506L104.992 95.8997H102.112L101.61 101.515H99.9431ZM102.271 94.4475H104.832L104.453 90.212L103.901 83.6047H103.215L102.664 90.2241L102.271 94.4475Z" fill="white"/>
<path d="M107.914 101.515L110.119 91.64L108.024 82.1525H109.605L110.487 86.7147L111.161 90.9865H111.639L112.301 86.7147L113.171 82.1525H114.751L112.705 91.6884L114.862 101.515H113.269L112.337 96.7226L111.639 92.4387H111.161L110.462 96.7226L109.494 101.515H107.914Z" fill="white"/>
</svg>
