<svg width="32" height="32" viewBox="0 0 32 32" fill="none" xmlns="http://www.w3.org/2000/svg">
<path d="M28 7H4C3.45333 7 3 6.54667 3 6C3 5.45333 3.45333 5 4 5H28C28.5467 5 29 5.45333 29 6C29 6.54667 28.5467 7 28 7Z" fill="white"/>
<path d="M16.6267 13.6667H4C3.45333 13.6667 3 13.2134 3 12.6667C3 12.1201 3.45333 11.6667 4 11.6667H16.6267C17.1733 11.6667 17.6267 12.1201 17.6267 12.6667C17.6267 13.2134 17.1867 13.6667 16.6267 13.6667Z" fill="white"/>
<path d="M28 20.3333H4C3.45333 20.3333 3 19.8799 3 19.3333C3 18.7866 3.45333 18.3333 4 18.3333H28C28.5467 18.3333 29 18.7866 29 19.3333C29 19.8799 28.5467 20.3333 28 20.3333Z" fill="white"/>
<path d="M16.6267 27H4C3.45333 27 3 26.5467 3 26C3 25.4533 3.45333 25 4 25H16.6267C17.1733 25 17.6267 25.4533 17.6267 26C17.6267 26.5467 17.1867 27 16.6267 27Z" fill="white"/>
</svg>
